<svg xmlns="http://www.w3.org/2000/svg" viewBox="0 0 58.44 51.1"><g id="Capa_2" data-name="Capa 2"><g id="Capa_2-2" data-name="Capa 2"><path class="cls-1" d="M9.06,3.65H1.74A1.81,1.81,0,0,1,.12,2.48,1.85,1.85,0,0,1,.66.41,1.85,1.85,0,0,1,1.83,0h8.66A1.83,1.83,0,0,1,12.3,1.47c.31,1.3.65,2.6,1,3.9.12.52.25,1,.36,1.54.07.28.16.41.5.41h42.4A1.83,1.83,0,0,1,58.44,9.1a1.63,1.63,0,0,1-.08.58c-.3,1.15-.57,2.3-.86,3.46l-1.11,4.37c-.29,1.14-.56,2.29-.85,3.43l-1.15,4.51c-.21.85-.41,1.7-.62,2.55-.3,1.2-.6,2.41-.92,3.62a1.8,1.8,0,0,1-1.72,1.24h-31L21,36.18c.16.63.33,1.26.47,1.9,0,.23.16.25.35.25H49.43a2,2,0,0,1,1.8.8A1.82,1.82,0,0,1,49.76,42H20a1.83,1.83,0,0,1-1.78-1.42c-.4-1.67-.84-3.33-1.25-5-.34-1.35-.66-2.7-1-4.05L14.86,27c-.31-1.26-.61-2.52-.92-3.77-.44-1.75-.89-3.5-1.33-5.24-.29-1.2-.58-2.4-.88-3.6-.35-1.42-.72-2.83-1.07-4.24S10,7.55,9.72,6.26c-.21-.85-.43-1.71-.66-2.6M21.88,11H14.67q.93,3.64,1.81,7.24h6.36c-.31-2.44-.61-4.84-.91-7.24m24.22,7.25H52c.33,0,.45-.1.52-.4.49-2,1-4,1.49-6,.07-.29.13-.58.19-.89H47.05c-.3,2.41-.6,4.82-.9,7.26M36.35,11v7.27h5.94a.27.27,0,0,0,.2-.2c.06-.37.09-.74.14-1.11L43,13.68c.11-.9.23-1.8.35-2.72Zm-3.73,0h-7c.3,2.43.6,4.85.9,7.24h6.1ZM45.69,21.86c-.3,2.44-.61,4.85-.91,7.24.06,0,.08,0,.1,0h4.67a.24.24,0,0,0,.18-.16c.11-.32.2-.66.28-1,.45-1.77.88-3.53,1.32-5.3.07-.27.13-.54.2-.84ZM24.2,29.14c-.3-2.45-.61-4.86-.91-7.26H17.46c.31,1.27.61,2.53.93,3.78.27,1.08.56,2.15.82,3.23.06.24.17.28.38.27h4.56m12.14,0H40.9c.05,0,.15-.1.16-.17.08-.49.13-1,.19-1.48.14-1.09.27-2.17.4-3.26.1-.79.19-1.58.29-2.37H36.29Zm-3.71,0V21.88H26.94c.3,2.44.6,4.86.9,7.28Z"/><path class="cls-1" d="M19.6,47.46a3.66,3.66,0,1,1,3.69,3.64,3.66,3.66,0,0,1-3.69-3.64h0"/><path class="cls-1" d="M49.27,47.45a3.66,3.66,0,1,1-3.65-3.67h0a3.66,3.66,0,0,1,3.63,3.67"/></g></g></svg>
